<mxfile host="app.diagrams.net" modified="2023-10-26T18:00:24.169Z" agent="Mozilla/5.0 (Windows NT 10.0; Win64; x64) AppleWebKit/537.36 (KHTML, like Gecko) Chrome/118.0.0.0 Safari/537.36 Edg/118.0.2088.69" etag="QqdgChfYF3A1pW5YlvnE" version="22.0.8" type="google">
  <diagram name="Page-1" id="VJxFMvExsnW7LAQTMirI">
    <mxGraphModel dx="1242" dy="569" grid="1" gridSize="10" guides="1" tooltips="1" connect="1" arrows="1" fold="1" page="1" pageScale="1" pageWidth="850" pageHeight="1100" math="0" shadow="0">
      <root>
        <mxCell id="0" />
        <mxCell id="1" parent="0" />
        <mxCell id="cdZ6AkiQQCimveX8URgn-7" value="" style="edgeStyle=orthogonalEdgeStyle;rounded=0;orthogonalLoop=1;jettySize=auto;html=1;" edge="1" parent="1" source="cdZ6AkiQQCimveX8URgn-1">
          <mxGeometry relative="1" as="geometry">
            <mxPoint x="450" y="140" as="targetPoint" />
          </mxGeometry>
        </mxCell>
        <mxCell id="cdZ6AkiQQCimveX8URgn-1" value="start" style="ellipse;whiteSpace=wrap;html=1;" vertex="1" parent="1">
          <mxGeometry x="390" y="60" width="120" height="60" as="geometry" />
        </mxCell>
        <mxCell id="cdZ6AkiQQCimveX8URgn-14" value="" style="edgeStyle=orthogonalEdgeStyle;rounded=0;orthogonalLoop=1;jettySize=auto;html=1;" edge="1" parent="1" source="cdZ6AkiQQCimveX8URgn-12" target="cdZ6AkiQQCimveX8URgn-13">
          <mxGeometry relative="1" as="geometry" />
        </mxCell>
        <mxCell id="cdZ6AkiQQCimveX8URgn-12" value="user" style="rounded=0;whiteSpace=wrap;html=1;" vertex="1" parent="1">
          <mxGeometry x="390" y="140" width="120" height="40" as="geometry" />
        </mxCell>
        <mxCell id="cdZ6AkiQQCimveX8URgn-16" value="" style="edgeStyle=orthogonalEdgeStyle;rounded=0;orthogonalLoop=1;jettySize=auto;html=1;" edge="1" parent="1" source="cdZ6AkiQQCimveX8URgn-13" target="cdZ6AkiQQCimveX8URgn-15">
          <mxGeometry relative="1" as="geometry" />
        </mxCell>
        <mxCell id="cdZ6AkiQQCimveX8URgn-22" value="" style="edgeStyle=orthogonalEdgeStyle;rounded=0;orthogonalLoop=1;jettySize=auto;html=1;" edge="1" parent="1" source="cdZ6AkiQQCimveX8URgn-13" target="cdZ6AkiQQCimveX8URgn-21">
          <mxGeometry relative="1" as="geometry" />
        </mxCell>
        <mxCell id="cdZ6AkiQQCimveX8URgn-13" value="login" style="rhombus;whiteSpace=wrap;html=1;rounded=0;" vertex="1" parent="1">
          <mxGeometry x="410" y="230" width="80" height="60" as="geometry" />
        </mxCell>
        <mxCell id="cdZ6AkiQQCimveX8URgn-15" value="register" style="whiteSpace=wrap;html=1;rounded=0;" vertex="1" parent="1">
          <mxGeometry x="550" y="230" width="120" height="60" as="geometry" />
        </mxCell>
        <mxCell id="cdZ6AkiQQCimveX8URgn-20" value="" style="endArrow=classic;startArrow=classic;html=1;rounded=0;entryX=0.573;entryY=0.027;entryDx=0;entryDy=0;entryPerimeter=0;" edge="1" parent="1" target="cdZ6AkiQQCimveX8URgn-15">
          <mxGeometry width="50" height="50" relative="1" as="geometry">
            <mxPoint x="450" y="210" as="sourcePoint" />
            <mxPoint x="790" y="190" as="targetPoint" />
            <Array as="points">
              <mxPoint x="619" y="210" />
            </Array>
          </mxGeometry>
        </mxCell>
        <mxCell id="cdZ6AkiQQCimveX8URgn-27" value="" style="edgeStyle=orthogonalEdgeStyle;rounded=0;orthogonalLoop=1;jettySize=auto;html=1;" edge="1" parent="1" source="cdZ6AkiQQCimveX8URgn-21" target="cdZ6AkiQQCimveX8URgn-26">
          <mxGeometry relative="1" as="geometry" />
        </mxCell>
        <mxCell id="cdZ6AkiQQCimveX8URgn-21" value="search products" style="whiteSpace=wrap;html=1;rounded=0;" vertex="1" parent="1">
          <mxGeometry x="390" y="330" width="120" height="50" as="geometry" />
        </mxCell>
        <mxCell id="cdZ6AkiQQCimveX8URgn-23" value="no" style="text;html=1;align=center;verticalAlign=middle;resizable=0;points=[];autosize=1;strokeColor=none;fillColor=none;" vertex="1" parent="1">
          <mxGeometry x="490" y="228" width="40" height="30" as="geometry" />
        </mxCell>
        <mxCell id="cdZ6AkiQQCimveX8URgn-25" value="yes" style="text;html=1;align=center;verticalAlign=middle;resizable=0;points=[];autosize=1;strokeColor=none;fillColor=none;" vertex="1" parent="1">
          <mxGeometry x="460" y="288" width="40" height="30" as="geometry" />
        </mxCell>
        <mxCell id="cdZ6AkiQQCimveX8URgn-29" value="" style="edgeStyle=orthogonalEdgeStyle;rounded=0;orthogonalLoop=1;jettySize=auto;html=1;" edge="1" parent="1" source="cdZ6AkiQQCimveX8URgn-26" target="cdZ6AkiQQCimveX8URgn-28">
          <mxGeometry relative="1" as="geometry" />
        </mxCell>
        <mxCell id="cdZ6AkiQQCimveX8URgn-26" value="select one product" style="whiteSpace=wrap;html=1;rounded=0;" vertex="1" parent="1">
          <mxGeometry x="390" y="420" width="120" height="50" as="geometry" />
        </mxCell>
        <mxCell id="cdZ6AkiQQCimveX8URgn-31" value="" style="edgeStyle=orthogonalEdgeStyle;rounded=0;orthogonalLoop=1;jettySize=auto;html=1;" edge="1" parent="1" source="cdZ6AkiQQCimveX8URgn-28" target="cdZ6AkiQQCimveX8URgn-30">
          <mxGeometry relative="1" as="geometry" />
        </mxCell>
        <mxCell id="cdZ6AkiQQCimveX8URgn-28" value="comform the order" style="shape=parallelogram;perimeter=parallelogramPerimeter;whiteSpace=wrap;html=1;fixedSize=1;rounded=0;" vertex="1" parent="1">
          <mxGeometry x="360" y="520" width="180" height="60" as="geometry" />
        </mxCell>
        <mxCell id="cdZ6AkiQQCimveX8URgn-30" value="stop" style="ellipse;whiteSpace=wrap;html=1;rounded=0;" vertex="1" parent="1">
          <mxGeometry x="410" y="650" width="80" height="50" as="geometry" />
        </mxCell>
      </root>
    </mxGraphModel>
  </diagram>
</mxfile>
